# xmcd
#
# Track frame offsets:
#	150
#	9550
#	23895
#	35710
#	47860
#	58480
#	70695
#	84985
#	97510
#	111290
#	126095
#	138615
#	149315
#	159850
#	176990
#	191505
#	203095
#	218280
#	231935
#	246625
#	259240
#	272365
#
# Disc length: 3811 seconds
#
# Revision: 0
# Processed by: cddbd v1.5.1PL0 Copyright (c) Steve Scherf et al.
# Submitted via: audiograbber 1.83.01
#
DISCID=3c0ee116
DTITLE=George Jones - Anniversary
DYEAR=1900
DGENRE=Country
TTITLE0=We Can Make It
TTITLE1=Loving You Could Never Be Better
TTITLE2=A Picture Of Me (Without You)
TTITLE3=What My Woman Can't Do
TTITLE4=Nothing Ever Hurt Me (Half As Bad As Losing You)
TTITLE5=Once You've Had The Best
TTITLE6=The Grand Tour
TTITLE7=The Door
TTITLE8=These Days (I Barely Get By)
TTITLE9=Memories Of Us
TTITLE10=The Battle
TTITLE11=Her Name Is...
TTITLE12=Old King Kong
TTITLE13=Bartender's Blues
TTITLE14=I'll just Take It Out In Love
TTITLE15=Someday My Day Will Come
TTITLE16=He Stopped Loving Her Today
TTITLE17=I'm Not Ready Yet
TTITLE18=If Drinkin' Don't Kill Me (Her Memory Will )
TTITLE19=Good Ones And Bad Ones
TTITLE20=Still Doin' Time 
TTITLE21=Same Ole Me
EXTD=
EXTT0=
EXTT1=
EXTT2=
EXTT3=
EXTT4=
EXTT5=
EXTT6=
EXTT7=
EXTT8=
EXTT9=
EXTT10=
EXTT11=
EXTT12=
EXTT13=
EXTT14=
EXTT15=
EXTT16=
EXTT17=
EXTT18=
EXTT19=
EXTT20=
EXTT21=
PLAYORDER=
